<svg xmlns="http://www.w3.org/2000/svg" viewBox="0 0 129.95 75.48"><defs><style>.cls-1{fill:#221f1f;}.cls-2{fill:#010101;}</style></defs><title>Asset 1</title><g id="Layer_2" data-name="Layer 2"><g id="Layer_1-2" data-name="Layer 1"><path class="cls-1" d="M39.07,40.67,39,46.52H23.36V45.33a3.16,3.16,0,0,0,2.08-.46,2.23,2.23,0,0,0,.46-1.6v-11a3.68,3.68,0,0,0-.15-1.18,1.2,1.2,0,0,0-.72-.65,4.68,4.68,0,0,0-1.67-.23V29h8.81V30.2a4.66,4.66,0,0,0-1.66.22,1.2,1.2,0,0,0-.74.64,3.18,3.18,0,0,0-.17,1.2V42.34a8.57,8.57,0,0,0,.11,1.7,1.14,1.14,0,0,0,.63.78,3.93,3.93,0,0,0,1.7.27,13.29,13.29,0,0,0,2.6-.23,4,4,0,0,0,2.06-1.2,5,5,0,0,0,1.19-3Z"/><path class="cls-1" d="M83,30.2a4.56,4.56,0,0,0-1.79.25,1.13,1.13,0,0,0-.67.74,6.77,6.77,0,0,0-.13,1.6V46.67H79.24L67.79,33.07v9.64a6.88,6.88,0,0,0,.13,1.6,1.19,1.19,0,0,0,.69.76,4.61,4.61,0,0,0,1.8.26v1.19H63.9V45.33a4,4,0,0,0,1.68-.26,1.16,1.16,0,0,0,.65-.76,7.65,7.65,0,0,0,.12-1.6V33.78a16.09,16.09,0,0,0-.06-1.63A2.51,2.51,0,0,0,66,31.2a1.66,1.66,0,0,0-.72-.66,4,4,0,0,0-1.37-.34V29H69L79,40.79v-8a6.42,6.42,0,0,0-.13-1.5,1.27,1.27,0,0,0-.67-.81,3.84,3.84,0,0,0-1.7-.28V29H83Z"/><path class="cls-1" d="M107.74,40.76l-.14,5.76H92V45.33a3.14,3.14,0,0,0,2.08-.46,2.23,2.23,0,0,0,.47-1.6v-11a3.58,3.58,0,0,0-.15-1.16,1.18,1.18,0,0,0-.7-.66A4.5,4.5,0,0,0,92,30.2V29h14.53l.23,4.55h-1.19a6,6,0,0,0-.92-2.17,2.15,2.15,0,0,0-1.18-.8,9.32,9.32,0,0,0-2-.15H98.24v6.19H100a4.28,4.28,0,0,0,1.37-.16,1,1,0,0,0,.63-.62,5.21,5.21,0,0,0,.25-1.42h1.24v5.83h-1.19a4.34,4.34,0,0,0-.26-1.43,1.08,1.08,0,0,0-.65-.61,4.21,4.21,0,0,0-1.36-.16H98.24v4.12c0,.69,0,1.19.05,1.51a1.73,1.73,0,0,0,.28.8,1.3,1.3,0,0,0,.73.46,6,6,0,0,0,1.46.14h1.4a6.29,6.29,0,0,0,1.7-.23,3.27,3.27,0,0,0,1.58-1.16,6.09,6.09,0,0,0,1.09-2.94Z"/><polygon class="cls-2" points="64.18 0 64.18 1.25 128.69 1.25 128.69 74.23 1.25 74.23 1.25 1.25 50.8 1.25 50.8 46.58 52.05 46.58 52.05 0 0 0 0 75.48 129.94 75.48 129.94 0 64.18 0"/></g></g></svg>